# xmcd CD database file
#
# Track frame offsets:
#	222
#	12747
#	29917
#	37917
#	50460
#	63332
#	75622
#	87072
#	98582
#	116300
#	129585
#	134312
#	143072
#	163915
#	174780
#	194272
#	208322
#	225785
#	231055
#
# Disc length: 3248 seconds
#
# Revision: 2
# Processed by: cddbd v1.5.1PL2 Copyright (c) Steve Scherf et al.
# Submitted via: CDex 1.51
#
DISCID=f50cae13
DTITLE=Tom Waits - Rain Dogs
DYEAR=1985
DGENRE=Rock
TTITLE0=Singapore
TTITLE1=Clap Hands
TTITLE2=Cemetery Polka
TTITLE3=Jockey Full of Bourbon
TTITLE4=Tango Till They're Sore
TTITLE5=Big Black Mariah
TTITLE6=Diamonds and Gold
TTITLE7=Hang Down Your Head
TTITLE8=Time
TTITLE9=Rain Dogs
TTITLE10=Midtown
TTITLE11=9th and Hennepin
TTITLE12=Gun Street Girl
TTITLE13=Union Square
TTITLE14=Blind Love
TTITLE15=Walking Spanish
TTITLE16=Downtown Train
TTITLE17=Bride Of Rain Dog
TTITLE18=Anywhere I Lay My Head
EXTD=YEAR: 1985
EXTT0=
EXTT1=
EXTT2=
EXTT3=
EXTT4=
EXTT5=
EXTT6=
EXTT7=
EXTT8=
EXTT9=
EXTT10=
EXTT11=
EXTT12=
EXTT13=
EXTT14=
EXTT15=
EXTT16=
EXTT17=
EXTT18=
PLAYORDER=
